<svg width="66" height="79" viewBox="0 0 66 79" fill="none" xmlns="http://www.w3.org/2000/svg">
<mask id="path-2-inside-1_860_4958" fill="white">
<path d="M53.1229 22.5817H46.1503L42.7218 17.4961C42.5381 17.2238 42.2894 17.0005 41.9976 16.846C41.7058 16.6915 41.38 16.6105 41.0491 16.6104H24.9506C24.6197 16.6105 24.2939 16.6915 24.0021 16.846C23.7103 17.0005 23.4616 17.2238 23.2779 17.4961L19.8469 22.5817H12.8768C11.2757 22.5817 9.74016 23.2108 8.60802 24.3306C7.47588 25.4504 6.83984 26.9693 6.83984 28.553V56.419C6.83984 58.0027 7.47588 59.5216 8.60802 60.6414C9.74016 61.7612 11.2757 62.3904 12.8768 62.3904H53.1229C54.724 62.3904 56.2595 61.7612 57.3917 60.6414C58.5238 59.5216 59.1598 58.0027 59.1598 56.419V28.553C59.1598 26.9693 58.5238 25.4504 57.3917 24.3306C56.2595 23.2108 54.724 22.5817 53.1229 22.5817ZM55.1352 56.419C55.1352 56.9469 54.9232 57.4532 54.5458 57.8265C54.1685 58.1998 53.6566 58.4095 53.1229 58.4095H12.8768C12.3431 58.4095 11.8312 58.1998 11.4539 57.8265C11.0765 57.4532 10.8645 56.9469 10.8645 56.419V28.553C10.8645 28.0251 11.0765 27.5188 11.4539 27.1455C11.8312 26.7722 12.3431 26.5625 12.8768 26.5625H20.926C21.2574 26.5627 21.5837 26.482 21.8759 26.3275C22.1682 26.173 22.4173 25.9494 22.6012 25.6768L26.0272 20.5912H39.97L43.3984 25.6768C43.5824 25.9494 43.8315 26.173 44.1238 26.3275C44.416 26.482 44.7423 26.5627 45.0737 26.5625H53.1229C53.6566 26.5625 54.1685 26.7722 54.5458 27.1455C54.9232 27.5188 55.1352 28.0251 55.1352 28.553V56.419ZM32.9998 30.5434C30.8109 30.5434 28.671 31.1854 26.851 32.3884C25.0309 33.5913 23.6123 35.301 22.7746 37.3014C21.9369 39.3018 21.7178 41.5029 22.1448 43.6265C22.5719 45.7501 23.626 47.7007 25.1738 49.2318C26.7216 50.7628 28.6937 51.8054 30.8406 52.2278C32.9876 52.6502 35.2129 52.4334 37.2353 51.6049C39.2576 50.7763 40.9862 49.3731 42.2023 47.5728C43.4184 45.7725 44.0675 43.656 44.0675 41.4908C44.0642 38.5884 42.8971 35.8058 40.8222 33.7534C38.7473 31.7011 35.9342 30.5467 32.9998 30.5434ZM32.9998 48.4573C31.6069 48.4573 30.2451 48.0487 29.0869 47.2832C27.9287 46.5177 27.026 45.4297 26.4929 44.1568C25.9598 42.8838 25.8203 41.4831 26.0921 40.1317C26.3639 38.7803 27.0346 37.539 28.0196 36.5647C29.0046 35.5904 30.2596 34.9269 31.6258 34.6581C32.992 34.3893 34.4082 34.5273 35.6951 35.0546C36.9821 35.5818 38.082 36.4748 38.8559 37.6204C39.6299 38.766 40.0429 40.1129 40.0429 41.4908C40.0429 43.3384 39.3009 45.1104 37.9801 46.4169C36.6592 47.7233 34.8678 48.4573 32.9998 48.4573Z"/>
</mask>
<path d="M53.1229 22.5817H46.1503L42.7218 17.4961C42.5381 17.2238 42.2894 17.0005 41.9976 16.846C41.7058 16.6915 41.38 16.6105 41.0491 16.6104H24.9506C24.6197 16.6105 24.2939 16.6915 24.0021 16.846C23.7103 17.0005 23.4616 17.2238 23.2779 17.4961L19.8469 22.5817H12.8768C11.2757 22.5817 9.74016 23.2108 8.60802 24.3306C7.47588 25.4504 6.83984 26.9693 6.83984 28.553V56.419C6.83984 58.0027 7.47588 59.5216 8.60802 60.6414C9.74016 61.7612 11.2757 62.3904 12.8768 62.3904H53.1229C54.724 62.3904 56.2595 61.7612 57.3917 60.6414C58.5238 59.5216 59.1598 58.0027 59.1598 56.419V28.553C59.1598 26.9693 58.5238 25.4504 57.3917 24.3306C56.2595 23.2108 54.724 22.5817 53.1229 22.5817ZM55.1352 56.419C55.1352 56.9469 54.9232 57.4532 54.5458 57.8265C54.1685 58.1998 53.6566 58.4095 53.1229 58.4095H12.8768C12.3431 58.4095 11.8312 58.1998 11.4539 57.8265C11.0765 57.4532 10.8645 56.9469 10.8645 56.419V28.553C10.8645 28.0251 11.0765 27.5188 11.4539 27.1455C11.8312 26.7722 12.3431 26.5625 12.8768 26.5625H20.926C21.2574 26.5627 21.5837 26.482 21.8759 26.3275C22.1682 26.173 22.4173 25.9494 22.6012 25.6768L26.0272 20.5912H39.97L43.3984 25.6768C43.5824 25.9494 43.8315 26.173 44.1238 26.3275C44.416 26.482 44.7423 26.5627 45.0737 26.5625H53.1229C53.6566 26.5625 54.1685 26.7722 54.5458 27.1455C54.9232 27.5188 55.1352 28.0251 55.1352 28.553V56.419ZM32.9998 30.5434C30.8109 30.5434 28.671 31.1854 26.851 32.3884C25.0309 33.5913 23.6123 35.301 22.7746 37.3014C21.9369 39.3018 21.7178 41.5029 22.1448 43.6265C22.5719 45.7501 23.626 47.7007 25.1738 49.2318C26.7216 50.7628 28.6937 51.8054 30.8406 52.2278C32.9876 52.6502 35.2129 52.4334 37.2353 51.6049C39.2576 50.7763 40.9862 49.3731 42.2023 47.5728C43.4184 45.7725 44.0675 43.656 44.0675 41.4908C44.0642 38.5884 42.8971 35.8058 40.8222 33.7534C38.7473 31.7011 35.9342 30.5467 32.9998 30.5434ZM32.9998 48.4573C31.6069 48.4573 30.2451 48.0487 29.0869 47.2832C27.9287 46.5177 27.026 45.4297 26.4929 44.1568C25.9598 42.8838 25.8203 41.4831 26.0921 40.1317C26.3639 38.7803 27.0346 37.539 28.0196 36.5647C29.0046 35.5904 30.2596 34.9269 31.6258 34.6581C32.992 34.3893 34.4082 34.5273 35.6951 35.0546C36.9821 35.5818 38.082 36.4748 38.8559 37.6204C39.6299 38.766 40.0429 40.1129 40.0429 41.4908C40.0429 43.3384 39.3009 45.1104 37.9801 46.4169C36.6592 47.7233 34.8678 48.4573 32.9998 48.4573Z" fill="#FFFEFE"/>
<path d="M46.1503 22.5817L38.0161 28.0654L40.9327 32.3917H46.1503V22.5817ZM42.7218 17.4961L50.856 12.0124L50.8546 12.0104L42.7218 17.4961ZM41.0491 16.6104L41.0549 6.80035H41.0491V16.6104ZM24.9506 16.6104V6.80035L24.9448 6.80035L24.9506 16.6104ZM23.2779 17.4961L31.4102 22.9826L31.4107 22.9818L23.2779 17.4961ZM19.8469 22.5817V32.3917H25.0623L27.9792 28.0681L19.8469 22.5817ZM6.83984 28.553H-2.97016H6.83984ZM6.83984 56.419H-2.97016H6.83984ZM12.8768 62.3904V72.2004V62.3904ZM53.1229 62.3904V72.2004V62.3904ZM59.1598 56.419H68.9698H59.1598ZM59.1598 28.553H68.9698H59.1598ZM20.926 26.5625L20.9323 16.7525H20.926V26.5625ZM22.6012 25.6768L30.7341 31.1625L30.7373 31.1577L22.6012 25.6768ZM26.0272 20.5912V10.7812H20.8075L17.8911 15.1103L26.0272 20.5912ZM39.97 20.5912L48.1042 15.1075L45.1876 10.7812H39.97V20.5912ZM43.3984 25.6768L35.2643 31.1605L35.2656 31.1625L43.3984 25.6768ZM45.0737 26.5625V16.7525L45.0674 16.7525L45.0737 26.5625ZM32.9998 30.5434L33.0109 20.7334H32.9998V30.5434ZM44.0675 41.4908H53.8775L53.8775 41.4795L44.0675 41.4908ZM32.9998 48.4573L32.9998 58.2673L32.9998 48.4573ZM40.0429 41.4908H30.2329H40.0429ZM53.1229 12.7717H46.1503V32.3917H53.1229V12.7717ZM54.2845 17.0979L50.856 12.0124L34.5876 22.9798L38.0161 28.0654L54.2845 17.0979ZM50.8546 12.0104C49.7649 10.3948 48.2968 9.08106 46.5883 8.17641L37.4069 25.5156C36.282 24.9199 35.3114 24.0528 34.589 22.9818L50.8546 12.0104ZM46.5883 8.17641C44.8804 7.27205 42.9802 6.80149 41.0549 6.80035L41.0433 26.4204C39.7798 26.4196 38.5312 26.1109 37.4069 25.5156L46.5883 8.17641ZM41.0491 6.80035H24.9506V26.4204H41.0491V6.80035ZM24.9448 6.80035C23.0195 6.80149 21.1193 7.27204 19.4114 8.17641L28.5928 25.5156C27.4684 26.1109 26.2198 26.4196 24.9564 26.4204L24.9448 6.80035ZM19.4114 8.17641C17.7029 9.08105 16.2348 10.3947 15.1451 12.0104L31.4107 22.9818C30.6883 24.0528 29.7177 24.9199 28.5928 25.5156L19.4114 8.17641ZM15.1456 12.0096L11.7146 17.0952L27.9792 28.0681L31.4102 22.9826L15.1456 12.0096ZM19.8469 12.7717H12.8768V32.3917H19.8469V12.7717ZM12.8768 12.7717C8.70829 12.7717 4.68922 14.4086 1.70931 17.3561L15.5067 31.3051C14.7911 32.013 13.8431 32.3917 12.8768 32.3917V12.7717ZM1.70931 17.3561C-1.27423 20.3072 -2.97016 24.3327 -2.97016 28.553H16.6498C16.6498 29.6059 16.226 30.5937 15.5067 31.3051L1.70931 17.3561ZM-2.97016 28.553V56.419H16.6498V28.553H-2.97016ZM-2.97016 56.419C-2.97016 60.6393 -1.27423 64.6648 1.70931 67.6159L15.5067 53.6669C16.226 54.3783 16.6498 55.3661 16.6498 56.419H-2.97016ZM1.70931 67.6159C4.68921 70.5634 8.70827 72.2004 12.8768 72.2004V52.5803C13.8431 52.5803 14.7911 52.959 15.5067 53.6669L1.70931 67.6159ZM12.8768 72.2004H53.1229V52.5803H12.8768V72.2004ZM53.1229 72.2004C57.2914 72.2004 61.3105 70.5634 64.2904 67.6159L50.493 53.6669C51.2086 52.959 52.1566 52.5803 53.1229 52.5803V72.2004ZM64.2904 67.6159C67.2739 64.6648 68.9698 60.6393 68.9698 56.419H49.3498C49.3498 55.3661 49.7737 54.3783 50.493 53.6669L64.2904 67.6159ZM68.9698 56.419V28.553H49.3498V56.419H68.9698ZM68.9698 28.553C68.9698 24.3327 67.2739 20.3072 64.2904 17.3561L50.493 31.3051C49.7737 30.5937 49.3498 29.6059 49.3498 28.553H68.9698ZM64.2904 17.3561C61.3105 14.4086 57.2914 12.7717 53.1229 12.7717V32.3917C52.1566 32.3917 51.2086 32.013 50.493 31.3051L64.2904 17.3561ZM45.3252 56.419C45.3252 54.3104 46.1731 52.31 47.6471 50.852L61.4445 64.801C63.6734 62.5964 64.9452 59.5835 64.9452 56.419H45.3252ZM47.6471 50.852C49.1175 49.3975 51.0893 48.5995 53.1229 48.5995V68.2195C56.224 68.2195 59.2194 67.002 61.4445 64.801L47.6471 50.852ZM53.1229 48.5995H12.8768V68.2195H53.1229V48.5995ZM12.8768 48.5995C14.9104 48.5995 16.8821 49.3975 18.3526 50.852L4.55514 64.801C6.78031 67.002 9.77571 68.2195 12.8768 68.2195V48.5995ZM18.3526 50.852C19.8266 52.31 20.6745 54.3104 20.6745 56.419H1.05446C1.05446 59.5835 2.32636 62.5965 4.55514 64.801L18.3526 50.852ZM20.6745 56.419V28.553H1.05446V56.419H20.6745ZM20.6745 28.553C20.6745 30.6617 19.8266 32.662 18.3526 34.12L4.55514 20.171C2.32636 22.3755 1.05446 25.3885 1.05446 28.553H20.6745ZM18.3526 34.12C16.8822 35.5744 14.9105 36.3725 12.8768 36.3725V16.7525C9.77568 16.7525 6.78029 17.97 4.55514 20.171L18.3526 34.12ZM12.8768 36.3725H20.926V16.7525H12.8768V36.3725ZM20.9197 36.3725C22.8474 36.3738 24.7506 35.9044 26.4613 34.9999L17.2906 17.6551C18.4168 17.0596 19.6673 16.7517 20.9323 16.7525L20.9197 36.3725ZM26.4613 34.9999C28.1724 34.0952 29.6429 32.7802 30.7341 31.1625L14.4684 20.191C15.1918 19.1187 16.1639 18.2507 17.2906 17.6551L26.4613 34.9999ZM30.7373 31.1577L34.1632 26.0722L17.8911 15.1103L14.4652 20.1958L30.7373 31.1577ZM26.0272 30.4012H39.97V10.7812H26.0272V30.4012ZM31.8358 26.0749L35.2643 31.1605L51.5326 20.1931L48.1042 15.1075L31.8358 26.0749ZM35.2656 31.1625C36.3567 32.7802 37.8272 34.0951 39.5384 34.9999L48.7091 17.6551C49.8358 18.2508 50.808 19.1187 51.5313 20.191L35.2656 31.1625ZM39.5384 34.9999C41.2491 35.9044 43.1523 36.3738 45.08 36.3725L45.0674 16.7525C46.3324 16.7517 47.5829 17.0596 48.7091 17.6551L39.5384 34.9999ZM45.0737 36.3725H53.1229V16.7525H45.0737V36.3725ZM53.1229 36.3725C51.0892 36.3725 49.1175 35.5744 47.6471 34.12L61.4445 20.171C59.2194 17.97 56.224 16.7525 53.1229 16.7525V36.3725ZM47.6471 34.12C46.1731 32.662 45.3252 30.6616 45.3252 28.553H64.9452C64.9452 25.3885 63.6734 22.3756 61.4445 20.171L47.6471 34.12ZM45.3252 28.553V56.419H64.9452V28.553H45.3252ZM32.9998 20.7334C28.8943 20.7334 24.8724 21.9371 21.442 24.2043L32.2599 40.5724C32.4697 40.4338 32.7274 40.3534 32.9998 40.3534V20.7334ZM21.442 24.2043C18.0104 26.4723 15.3194 29.7071 13.726 33.5121L31.8233 41.0907C31.9052 40.8949 32.0514 40.7103 32.2599 40.5724L21.442 24.2043ZM13.726 33.5121C12.1321 37.3183 11.7133 41.5128 12.5274 45.5606L31.7623 41.6925C31.7222 41.4931 31.7418 41.2852 31.8233 41.0907L13.726 33.5121ZM12.5274 45.5606C13.3412 49.6077 15.3474 53.3104 18.2751 56.2063L32.0725 42.2572C31.9046 42.0911 31.8025 41.8925 31.7623 41.6925L12.5274 45.5606ZM18.2751 56.2063C21.2017 59.101 24.9174 61.0605 28.9468 61.8533L32.7345 42.6024C32.47 42.5503 32.2416 42.4245 32.0725 42.2572L18.2751 56.2063ZM28.9468 61.8533C32.9757 62.646 37.1528 62.2401 40.9545 60.6825L33.5161 42.5272C33.273 42.6268 32.9994 42.6545 32.7345 42.6024L28.9468 61.8533ZM40.9545 60.6825C44.7571 59.1245 48.0245 56.479 50.3313 53.0642L34.0732 42.0815C33.9478 42.2672 33.7582 42.428 33.5161 42.5272L40.9545 60.6825ZM50.3313 53.0642C52.639 49.648 53.8775 45.6202 53.8775 41.4908H34.2575C34.2575 41.6917 34.1978 41.8971 34.0732 42.0815L50.3313 53.0642ZM53.8775 41.4795C53.8712 35.9445 51.6444 30.6598 47.7209 26.7789L33.9235 40.728C34.1497 40.9517 34.2572 41.2323 34.2575 41.502L53.8775 41.4795ZM47.7209 26.7789C43.801 22.9016 38.5088 20.7396 33.0109 20.7334L32.9888 40.3534C33.3595 40.3538 33.6937 40.5006 33.9235 40.728L47.7209 26.7789ZM32.9998 38.6473C33.5234 38.6473 34.0438 38.8003 34.4959 39.0992L23.6779 55.4673C26.4465 57.2971 29.6903 58.2673 32.9998 58.2673V38.6473ZM34.4959 39.0992C34.9492 39.3988 35.3189 39.8358 35.5415 40.3675L17.4443 47.946C18.7331 51.0236 20.9082 53.6367 23.6779 55.4673L34.4959 39.0992ZM35.5415 40.3675C35.7646 40.9003 35.8248 41.4929 35.7096 42.0657L16.4746 38.1976C15.8159 41.4732 16.155 44.8673 17.4443 47.946L35.5415 40.3675ZM35.7096 42.0657C35.5945 42.6379 35.3132 43.1486 34.9183 43.5392L21.1209 29.5902C18.7561 31.9294 17.1332 34.9227 16.4746 38.1976L35.7096 42.0657ZM34.9183 43.5392C34.5246 43.9287 34.0359 44.182 33.5196 44.2836L29.732 25.0327C26.4833 25.6718 23.4847 27.2522 21.1209 29.5902L34.9183 43.5392ZM33.5196 44.2836C33.0039 44.3851 32.4682 44.3339 31.9759 44.1322L39.4143 25.9769C36.3481 24.7206 32.9801 24.3936 29.732 25.0327L33.5196 44.2836ZM31.9759 44.1322C31.4826 43.9301 31.0437 43.5807 30.7269 43.1117L46.985 32.1291C45.1204 29.3688 42.4815 27.2336 39.4143 25.9769L31.9759 44.1322ZM30.7269 43.1117C30.4092 42.6415 30.2329 42.0772 30.2329 41.4908H49.8529C49.8529 38.1487 48.8505 34.8906 46.985 32.1291L30.7269 43.1117ZM30.2329 41.4908C30.2329 40.7019 30.5508 39.9671 31.0813 39.4423L44.8788 53.3914C48.051 50.2536 49.8529 45.975 49.8529 41.4908H30.2329ZM31.0813 39.4423C31.6083 38.9211 32.3004 38.6473 32.9998 38.6473L32.9998 58.2673C37.4352 58.2673 41.7102 56.5256 44.8788 53.3914L31.0813 39.4423Z" fill="#A7A7A7" mask="url(#path-2-inside-1_860_4958)"/>
</svg>
