<svg width="26" height="26" viewBox="0 0 26 26" fill="none" xmlns="http://www.w3.org/2000/svg">
<path d="M23.881 24.7544C23.1236 22.3925 21.6358 20.3322 19.6319 18.8705C17.6281 17.4087 15.2119 16.6211 12.7315 16.6211C10.2512 16.6211 7.83496 17.4087 5.83114 18.8705C3.82732 20.3322 2.33944 22.3925 1.58203 24.7544H23.881Z" stroke="#2DB9B0" stroke-width="1.05241" stroke-linecap="round" stroke-linejoin="round"/>
<path d="M12.7318 16.6317C16.9486 16.6317 20.367 13.2133 20.367 8.99649C20.367 4.77971 16.9486 1.36133 12.7318 1.36133C8.51506 1.36133 5.09668 4.77971 5.09668 8.99649C5.09668 13.2133 8.51506 16.6317 12.7318 16.6317Z" stroke="#2DB9B0" stroke-width="1.05241" stroke-linecap="round" stroke-linejoin="round"/>
<path d="M15.2245 11.9531C15.2245 11.9531 14.591 13.1997 12.7314 13.1997C10.8718 13.1997 10.2383 11.9531 10.2383 11.9531" stroke="#2DB9B0" stroke-width="1.05241" stroke-linecap="round" stroke-linejoin="round"/>
<path d="M20.2281 7.5428C20.2111 7.54292 20.1941 7.54297 20.1771 7.54297C17.9577 7.54297 15.9652 6.57201 14.6011 5.03172C13.2369 6.57204 11.2444 7.54302 9.02502 7.54302C7.73626 7.54302 6.52397 7.2156 5.4668 6.6394C6.46003 3.57615 9.33696 1.36133 12.7312 1.36133C16.4509 1.36133 19.5493 4.02127 20.2281 7.5428Z" stroke="#2DB9B0" stroke-width="1.05241" stroke-linecap="round" stroke-linejoin="round"/>
</svg>
